# xmcd
#
# Track frame offsets:
#	150
#	16759
#	34254
#	52194
#	66850
#	83725
#	102971
#	119921
#	140478
#	156547
#
# Disc length: 2375 seconds
# Revision: 0
# Processed by: cddbd v1.5.2PL0 Copyright (c) Steve Scherf et al.
# Submitted via: dBpowerAMP V12.0
#
DISCID=8f09450a
DTITLE=Pete Murray - Blue Sky Blue "The Byron Sessions"
DYEAR=2012
DGENRE=
TTITLE0=Blue Sky Blue 
TTITLE1=Always A Winner 
TTITLE2=Hurricane Coming  
TTITLE3=Free  
TTITLE4=Led  
TTITLE5=Let You Go 
TTITLE6=Broken 
TTITLE7=H.O.L.L.A.N.D.
TTITLE8=Tattoo Stained
TTITLE9=Hold It All For Love 
EXTD=
EXTT0=
EXTT1=
EXTT2=
EXTT3=
EXTT4=
EXTT5=
EXTT6=
EXTT7=
EXTT8=
EXTT9=
PLAYORDER=
